<?xml version="1.0" encoding="utf-8"?>
<!-- Generator: Adobe Illustrator 19.0.0, SVG Export Plug-In . SVG Version: 6.00 Build 0)  -->
<svg version="1.1" xmlns="http://www.w3.org/2000/svg" xmlns:xlink="http://www.w3.org/1999/xlink" x="0px" y="0px"
	 viewBox="-297.3 428.6 2182.7 708.7" style="enable-background:new -297.3 428.6 2182.7 708.7;" xml:space="preserve">
<style type="text/css">
	.st0{fill:none;stroke:#EFEFEF;stroke-width:14;stroke-miterlimit:10;}
	.st1{fill:none;stroke:#EFEFEF;stroke-width:20;stroke-linecap:round;stroke-miterlimit:10;}
	.st2{fill:#FFFFFF;stroke:#EFEFEF;stroke-width:14;stroke-miterlimit:10;}
	.st3{fill:#FFFFFF;stroke:#EFEFEF;stroke-miterlimit:10;}
	.st4{fill:none;stroke:#EFEFEF;stroke-width:15;stroke-linecap:round;stroke-miterlimit:10;}
	.st5{fill:none;stroke:#EFEFEF;stroke-width:30;stroke-linecap:round;stroke-miterlimit:10;}
	.st6{fill:#675F58;}
	.st7{fill:#FF931E;}
	.st8{fill:#BC8D63;}
	.st9{fill:#FFFFFF;}
	.st10{fill:none;}
	.st11{fill:none;stroke:#FF931E;stroke-width:8;stroke-miterlimit:10;}
	.st12{font-family:'HelveticaNeue';}
	.st13{font-size:24px;}
	.st14{font-size:28px;}
	.st15{font-size:32px;}
	.st16{fill:#00D8FF;}
	.st17{fill-opacity:0;stroke:#00D8FF;stroke-width:3;stroke-miterlimit:10;}
</style>
<g id="Layer_1">
	<g id="Airplane">
		<ellipse class="st0" cx="794" cy="827.2" rx="1044.7" ry="126.1"/>
		<line class="st1" x1="795.3" y1="443.6" x2="795.3" y2="711.8"/>
		<line class="st1" x1="387.1" y1="612.9" x2="1192.6" y2="612.9"/>
		<circle class="st2" cx="795.8" cy="812.6" r="198.3"/>
		<path class="st3" d="M671.7,655c0,0,7.8-124,122.3-124s122.3,121.3,122.3,121.3s-22.5,45.9-121.2,45.9S671.7,655,671.7,655z"/>
		<g>
			<line class="st4" x1="684.6" y1="979.7" x2="656.1" y2="1054.7"/>
			<line class="st5" x1="655.2" y1="1057" x2="634.5" y2="1111.6"/>
		</g>
		<g>
			<line class="st4" x1="905.9" y1="978.7" x2="933.9" y2="1053.8"/>
			<line class="st5" x1="934.8" y1="1056.1" x2="955.2" y2="1110.9"/>
		</g>
	</g>
	<g id="Blank">
		<g>
			<path class="st6" d="M869.7,678.3H721.3c-13.8,0-24.9,11.2-24.9,24.9c0,13.8,11.2,25,24.9,25h148.4c13.8,0,25-11.2,25-25
				C894.6,689.5,883.5,678.3,869.7,678.3z M866.4,711.8c-4.7,0-8.5-3.8-8.5-8.5s3.8-8.5,8.5-8.5c4.7,0,8.5,3.8,8.5,8.5
				C874.9,708,871.1,711.8,866.4,711.8z"/>
			<path class="st6" d="M869.7,733.8H721.3c-13.8,0-24.9,11.2-24.9,24.9c0,13.7,11.2,24.9,24.9,24.9h148.4c13.8,0,25-11.2,25-24.9
				C894.7,745,883.5,733.8,869.7,733.8z M866.4,767.3c-4.7,0-8.5-3.8-8.5-8.5s3.8-8.5,8.5-8.5c4.7,0,8.5,3.8,8.5,8.5
				S871.1,767.3,866.4,767.3z"/>
			<path class="st6" d="M869.7,789.3H721.3c-13.8,0-24.9,11.2-24.9,24.9c0,13.8,11.2,25,24.9,25h148.4c13.8,0,25-11.2,25-25
				C894.6,800.4,883.5,789.3,869.7,789.3z M866.4,822.7c-4.7,0-8.5-3.8-8.5-8.5s3.8-8.5,8.5-8.5c4.7,0,8.5,3.8,8.5,8.5
				S871.1,822.7,866.4,822.7z"/>
		</g>
		<g>
			<rect x="753.3" y="864.8" class="st7" width="84.5" height="19.1"/>
			<rect x="789.8" y="845.1" class="st7" width="11.4" height="28.6"/>
		</g>
		<rect x="843" y="870.8" class="st7" width="167.9" height="6.3"/>
		<rect x="580" y="870.8" class="st7" width="167.9" height="6.3"/>
	</g>
	<g id="Gopher">
		<path d="M705.1,660.8c0.6-0.4,1.1-1,1.7-1.3c0.7-0.4,1.2-0.8,1.3-1.7c0.1-1.1,1-1.4,1.9-0.6c1.1,0.9,1.9,2.1,2.1,3.5
			c0.3,1.8,0.8,3.7,1.2,5.5c0.2,1,0.9,1.6,1.9,1.5c1.2-0.1,2.4-0.1,3.6-0.4c2.1-0.6,4.2-1,6.4-1.1c2.2,0,4.5-0.4,6.7-0.6
			c1-0.1,1.7-0.8,2.2-1.7c1.7-3.6,3.2-7.2,4-11.1c0.6-2.5-0.3-4.8-0.6-7.2c-0.4-3-1.1-6-1.2-9c-0.1-2,0.5-4,0.8-6
			c0.1-0.7,0.1-1.2-0.5-1.8c-2.1-2.2-2.4-5-2-7.9c0.1-0.4-0.1-1.1-0.4-1.2c-4-2.6-5.2-6.8-4.1-11.4c1.4-5.6,5.1-8.5,10.9-8.6
			c0.8,0,1.6,0,2.6,0c0.2-0.9,0.5-1.8,0.6-2.8c0.8-4.4,3.2-7.3,7.2-9.2c0.8-0.3,1.4-1,2.1-1.5c1.6-1.2,3.2-2.3,4.8-3.6
			c1.5-1.3,2.9-2.7,4.5-4c1.4-1.2,2.8-2.5,4.3-3.5c5.7-3.7,11.8-6.1,18.6-6.8c2.1-0.2,4.1-0.7,6.2-1.1c2,0,3.9,0,5.9,0
			c1.8,0.2,3.6,0.3,5.3,0.5c3.2,0.3,6.4,0.9,9.4,2.2c3.2,1.4,6.6,2.5,9.9,3.5c3.6,1,6.5,3.1,9.3,5.5c3.4,3.1,6.7,6.2,10.6,8.7
			c1.6,1,2.6,2.6,3.2,4.4c0.7,2,1.3,4,1.9,6c0.2,0.8,0.6,1.1,1.5,1.1c3.7-0.1,7,1.2,9,4.4c1.6,2.5,2.3,5.4,1.9,8.4
			c-0.3,2.4-1.5,4.2-3.4,5.6c-0.3,0.3-0.6,0.8-0.6,1.3c-0.1,2.3-0.2,4.6-0.2,6.9c0,0.2-0.1,0.5-0.2,0.7c-1.6,2.7-0.9,5.8-1.6,8.6
			c-0.1,0.4,0.2,1,0.5,1.3c2.4,2.2,2.6,5.1,2.7,8.1c0.2,4.2-1.1,7.9-2.9,11.5c-0.4,0.9-0.9,1.7-1.3,2.6c-0.8,1.9-0.7,2.7,1,4
			c1.5,1.1,3.1,2,4.6,3.1c1.1,0.8,2.3,1.6,3.3,2.5c2.6,2.4,5,2.1,6.7-1c1.7-3,4-5.5,6.9-7.4c1.2-0.8,2.6-1.2,4-1.4
			c0.8-0.1,1.9,0.2,2.6,0.7c1.6,0.9,1.8,2.6,0.4,3.7c-1.4,1.1-3.1,2.1-4.8,2.7c-2.1,0.8-3.8,2-5.2,3.6c-0.5,0.6-0.8,1.4-1,2.1
			c-0.5,2.2-2.1,3.7-3.9,4.7c-0.5,0.3-1.4,0.3-2.1,0.1c-1.6-0.3-3.2-0.8-4.9-1c-2-0.2-3.8-1.1-5.5-2.1c-2-1.2-4.1-2.5-6.3-3.8
			c0,3.6,0,7,0,10.4c-1.2,0-1.6-0.3-1.6-1.5c0.1-2.9,0-5.8,0-8.7c0-0.7-0.2-1.1-0.8-1.4c-0.9-0.6-1.8-1.2-2.7-1.9
			c-1.7-1.3-2.3-3-1.8-5.1c0.4-2,1-3.9,1.4-5.9c0.8-3.2,0.6-6.3-0.9-9.2c-1.2-2.3-1.3-4.8-1.5-7.3c0-0.3,0-0.7-0.1-1.2
			c-0.3,0.2-0.5,0.3-0.7,0.5c-5.2,4.9-11.3,6.6-18.3,5.6c-4.2-0.7-8.2-1.8-11.9-4.2c-0.3,3.6-2.2,5.4-5.7,5.5
			c0.1,1.3,0.3,2.6,0.3,3.8c0,1.4,0.1,2.8-0.1,4.2c-0.3,3-2.7,4.6-5.6,3.9c-1.3-0.3-2.5-1-3.9-1.5c-0.7,0.4-1.7,1.1-2.7,1.6
			c-1.6,0.7-3.2,0.7-4.7-0.2c-1.2-0.8-1.8-1.8-1.8-3.3c0-2.7,0-5.3,0-8.1c-2.8-0.3-4.6-1.9-4.6-5.1c-8.6,5.4-17.3,7.8-27,2.7
			c-0.8,3.5-2.4,6.9-1.3,10.5c1.2,4.1-0.6,7-3.4,9.5c-1,1-1.4,1.9-1.3,3.2c0.2,3.4,0.3,6.8,0.4,10.2c0,0.5,0.1,3.1,0.1,3.8
			c-0.5,0-1.3,0-1.7,0c-0.1-4.1-0.1-10.3-0.2-14.4c-0.2,0-0.3,0-0.3,0c-2.3,2.3-5.1,3.4-8.3,3.4c-1.1,0-2.2,0.8-3.3,1.1
			c-1.3,0.4-2.7,0.7-4.1,0.9c-1.4,0.1-2.8,0-4.2-0.1c-2.4-0.1-4.7,0.1-7.1,1.1c-3.7,1.5-7.3,0.4-9.6-2.8c-1.7-2.3-3.1-4.8-4.6-7.3
			C705.1,661.4,705.1,661.1,705.1,660.8z M879.2,663.6c-0.7,0.4-1.4,0.8-2.1,1.1c0.1,0.1,0.1,0.2,0.2,0.4c1.4-0.8,2.9-1.4,4.2-2.4
			c0.5-0.4,1.2-1.4,1-1.9c-0.2-0.7-1-1.4-1.7-1.6c-1.9-0.6-3.5,0.2-5,1.2c1.2-0.3,2.4-0.7,3.6-1c1-0.2,2,0,2.6,1
			c-2.2-1.4-4.1-0.4-6,0.5c0,1,0.5,1.1,1.2,0.9c-0.5,0.3-0.9,0.7-1.4,1c0.1,0.1,0.1,0.2,0.2,0.3c1.1-0.5,2.2-0.9,3.3-1.4
			c0-0.1-0.1-0.2-0.1-0.2c-0.7,0.1-1.3,0.3-2,0.4c0.8-0.6,1.6-0.9,2.6-0.4c-0.7,0.6-1.4,1-2.2,1.4c-0.7,0.3-0.9,0.7-0.4,1.3
			C877.7,664,878.5,663.8,879.2,663.6z M794.1,593.7c-2.8,0.2-8.2,0.4-13.6,0.9c-6.7,0.6-13.2,1.8-19.5,4.2
			c-5.3,2-9.7,5.2-12.6,10.2c-2.9,5-3.9,10.5-3.9,16.3c0.1,3.6,1,6.8,3.2,9.6c3.4,4.5,7.6,8,13.3,9c6.2,1.1,12-0.5,17.4-3.7
			c1.1-0.7,2.4-1.4,3-2.5c1.4-2.4,3.5-4,5.9-5.1c0.2-0.1,0.6-0.4,0.6-0.6c-0.2-1.9,1.1-2.8,2.6-3.5c3.3-1.4,6.6-1.4,9.9,0.1
			c1,0.4,1.8,1.4,2.4,2.3c0.4,0.6,0.6,1,1.3,1.3c2.5,1,4.7,2.5,5.7,5.2c0.2,0.4,0.6,0.8,1,1c2.5,1.7,5.4,2.7,8.3,3.4
			c7.5,1.8,14.4,0.8,20.2-4.8c2.5-2.4,4.9-5,5.6-8.5c1.5-7.2,0.4-14.2-3.4-20.6c-3.6-6.1-9.1-9.4-15.8-11.2
			C816.3,594.1,806.5,593.7,794.1,593.7z M792.3,568.6c0.1,0.6,0.1,1.1,0.2,1.6c0.3,4,0.8,8.1,1,12.1c0.2,3,0.1,6,0,9
			c0,0.9,0.2,1.2,1.1,1.1c3.1,0,6.2-0.1,9.2,0c5.9,0.1,11.8,0.6,17.6,1.8c3.2,0.7,6.3,1.6,9.6,2.5c0-0.1,0.2-0.2,0.3-0.4
			c1.6-3.6,3.2-7.2,4.8-10.8c0.3-0.7,0-1-0.4-1.4c-2-1.8-3.9-3.6-5.9-5.3c-2.1-1.9-4.5-3.2-7.2-4.1c-3.8-1.2-7.5-2.6-11.3-4
			c-1.2-0.4-2.3-1-3.5-1.1c-3.1-0.4-6.2-0.8-9.3-1C796.5,568.5,794.5,568.6,792.3,568.6z M755.7,599.8c3.9-2.1,7.9-3.5,12-4.5
			c7.7-1.8,15.6-2.6,23.6-2.8c0.9,0,1.3-0.2,1.2-1.3c-0.1-1.8-0.2-3.5-0.1-5.3c0.3-5.4-0.4-10.8-0.9-16.1c-0.1-1.1-0.6-1.3-1.6-1
			c-1.5,0.4-3,0.6-4.5,0.8c-3.4,0.6-7,0.9-10.2,2.5c-4.8,2.4-9.6,4.6-13.1,8.8c-0.8,1-1.9,1.7-2.9,2.5c-1.2,0.9-2.4,1.7-3.7,2.5
			c-1.4,1-2.3,2.2-1.9,4c0.2,0.7,0.1,1.5,0.2,2.2C754.3,594.8,754.5,597.3,755.7,599.8z M738.2,630.3c-0.2,2.1-0.8,4.3-0.6,6.5
			c0.3,3.9,1.2,7.7,1.7,11.6c0.2,1.1,0.3,2.3,0.2,3.4c-0.7,4.5-2.4,8.7-4.4,12.8c-0.6,1.2-1.6,2-2.9,2.1c-2.3,0.3-4.6,0.6-6.9,0.6
			c-2.1,0-4.2,0.4-6.2,1c-1.3,0.4-2.8,0.5-4.3,0.4c-1.4,0-2.3-0.8-2.6-2.2c-0.4-1.9-0.8-3.9-1.4-5.8c-0.3-0.9-0.8-1.7-1.2-2.6
			c-0.1,0-0.3,0-0.4,0c-0.2,1.8-1.7,2.2-3,3c0.2,0.5,0.3,0.9,0.5,1.2c1.2,1.9,2.4,3.9,3.7,5.7c2.4,3.2,5.2,3.9,9,2.5
			c1-0.4,2-0.8,3-0.9c2.7-0.1,5.4-0.1,8.1,0c1.4,0,2.7-0.2,3.9-0.9c1.5-0.8,3.1-1.2,4.8-1.3c1,0,2.2-0.2,3-0.7
			c3.4-2.3,6.7-4.8,8.9-8.5c0.6-1.1,0.9-2.1,0.5-3.4c-0.7-2.7-0.8-5.3-0.1-8c0.4-1.4,0.7-2.8,1.1-4.2c0.2-0.7,0-1-0.5-1.5
			c-3.4-2.5-6.1-5.7-7.9-9.5c-0.1-0.3-0.5-0.6-0.8-0.7C741.9,630.8,740.3,630.6,738.2,630.3z M853.4,629.7c-2.4,0-4.6,0-6.8,0.1
			c-0.3,0-0.6,0.3-0.8,0.5c-1.1,1.7-2.2,3.5-3.3,5.2c-0.1,0.2-0.3,0.5-0.3,0.7c0,2.9-0.1,6,1.2,8.6c1.9,3.8,2.1,7.6,0.9,11.6
			c-0.4,1.4-0.7,2.8-1,4.2c-0.6,2.2,0.2,3.8,2,5c0.5,0.3,0.9,0.6,1.4,0.9c3.4,2,6.7,4,10.1,5.8c1.3,0.7,2.9,1,4.4,1.4
			c1.1,0.3,2.4,0.2,3.4,0.7c1.9,1,3.2,0.2,4.4-1.2c0.6-0.8,1-1.8,1.5-2.7c0.6-1,1.1-2.1,1.8-2.9c0.7-0.8,1.6-1.4,2.3-2.1
			c0.2-0.2,0.4-0.6,0.4-0.8c-0.2-0.8-0.5-1.5-0.8-2.4c-0.9,0.9-1.8,1.7-2.6,2.6c-0.8,1-1.5,2.2-2.2,3.3c-2,3.2-5,3.6-7.9,1.2
			c-1.5-1.2-3-2.3-4.6-3.4c-1-0.7-2.1-1.4-3.1-2.1c-2.7-2-3.1-3.3-1.7-6.4c1.1-2.3,2.4-4.6,3-7c1.1-4.7,2-9.6-1.8-13.7
			c-0.6-0.7-0.7-1.5-0.6-2.5C853,632.7,853.2,631.1,853.4,629.7z M837.1,585.8C837.2,585.7,837.1,585.8,837.1,585.8
			c-1.7,3.7-3.3,7.3-4.9,11c-0.1,0.2,0.1,0.8,0.4,1c0.7,0.5,1.4,0.8,2.1,1.2c6.5,4.3,10.2,10.4,11.6,18c0.4,1.9,0.6,2,2.4,1.9
			c0.6,0,1-0.2,0.9-0.9c-0.1-1.3-0.1-2.7-0.3-4c-0.5-3.6-2.3-6.6-3.6-9.8c-0.6-1.4-1.3-2.7-2-4.3c1-0.3,1.9-0.6,2.7-0.9
			C845.4,593.2,843.4,588,837.1,585.8z M803.7,643.2c2.2,0,3.5-0.7,4.2-2.1c0.9-1.8,0.7-4-0.9-5.3c-1.3-1.1-2.8-1.8-4.3-2.6
			c-0.2-0.1-0.7,0-0.9,0.2c-3.7,2.4-7.5,2.4-11.4,0.8c-1.3-0.5-2.1-0.5-3.2,0.1c-1.8,1-3.4,2-4.3,4c-1.2,2.7,0.3,5.1,3.2,5.1
			c1.3,0,2.7-0.3,4-0.5c2-0.2,4.1-0.7,6.1-0.7C798.9,642.3,801.4,642.8,803.7,643.2z M748.4,600.6c-4.4,5.9-7.5,12.2-8.2,19.5
			c0.5,0,0.9,0,1.3,0c1.8,0,1.9-0.1,2.2-1.8c1.3-7.2,4.4-13.3,10.5-17.6c0.2-0.2,0.5-0.7,0.4-0.9c-1.3-3.3-1.6-6.7-1.8-10.2
			c0-0.3-0.2-0.6-0.3-1c-4.6,1.7-7.5,6.1-7.3,11C746.2,599.9,747.1,600.2,748.4,600.6z M738.5,619.6c0.3-1.3,0.5-2.6,0.9-3.8
			c0.3-1,0.3-1.8-0.7-2.6c-1.5-1.1-1.8-3-1.1-4.4c0.6-1.2,1.8-1.6,3.8-1.4c0.1,0,0.2,0.1,0.3,0.1c0.2-0.1,0.6-0.1,0.7-0.3
			c1.1-1.8,2.2-3.7,3.4-5.7c-2.8-0.6-5.4-0.7-8,0.1c-2.6,0.8-4.4,2.6-5.4,5.2c-0.4,1-0.6,2-0.8,3
			C730.7,614.4,733.7,618.6,738.5,619.6z M851.3,617.8c4.7-0.1,7.9-4.2,7.1-9c-1.1-7-6.6-9.3-12.4-7.9c0.8,1.8,1.6,3.5,2.4,5.3
			c0.7,0,1.4-0.1,2-0.1c1.3,0,2.4,0.5,3.1,1.8c1,1.8,0.4,3.5-1.8,4.9c-0.3,0.2-0.8,0.7-0.8,1.1C851,615.1,851.2,616.4,851.3,617.8z
			 M794.3,643.7c-0.4,0-0.7,0-0.9,0c-1.8,0.4-3.7,0.8-5.5,1.2c-0.2,0.1-0.4,0.5-0.4,0.8c-0.1,2.5-0.2,4.9-0.3,7.4
			c0,0.4,0.1,0.9,0.3,1.2c0.6,1,2,1.6,3.3,1.2c1.5-0.4,3.3-1,3.5-2.7C794.5,649.8,794.3,646.8,794.3,643.7z M795.9,643.5
			c0,3,0.2,5.8-0.1,8.5c-0.1,1.5,0.6,2.1,1.7,2.7c0.5,0.2,0.9,0.4,1.4,0.5c2.2,0.5,3.8-0.5,3.9-2.7c0.1-2.4-0.1-4.8-0.2-7.2
			c0-0.3-0.3-0.7-0.6-0.7C800,644.1,798,643.8,795.9,643.5z M854.8,619.6c-2.8,0.2-5.3,0.5-8.1,0.7c0,2.6,0,5.3,0,8
			c1.7,0.4,3.6,0.4,5.4-0.2c0.7-0.2,1.6-0.7,1.9-1.4C855.2,624.5,854.9,622,854.8,619.6z M736,621.3c-1.2,5.1,2.2,8.8,7.3,8.3
			c0-2.8,0-5.5,0-8.3C740.8,621.3,738.4,621.3,736,621.3z"/>
		<path class="st8" d="M794.1,593.7c12.4,0,22.1,0.4,31.7,2.9c6.7,1.8,12.2,5.1,15.8,11.2c3.8,6.4,4.8,13.3,3.4,20.6
			c-0.7,3.5-3.1,6.1-5.6,8.5c-5.8,5.6-12.7,6.5-20.2,4.8c-3-0.7-5.8-1.7-8.3-3.4c-0.4-0.3-0.9-0.6-1-1c-1-2.7-3.2-4.2-5.7-5.2
			c-0.7-0.3-0.9-0.7-1.3-1.3c-0.6-0.9-1.4-1.8-2.4-2.3c-3.2-1.5-6.6-1.5-9.9-0.1c-1.5,0.6-2.8,1.5-2.6,3.5c0,0.2-0.3,0.5-0.6,0.6
			c-2.5,1.1-4.5,2.7-5.9,5.1c-0.6,1.1-1.9,1.8-3,2.5c-5.3,3.2-11.1,4.8-17.4,3.7c-5.7-1-9.8-4.5-13.3-9c-2.2-2.8-3.1-6-3.2-9.6
			c-0.1-5.8,0.9-11.3,3.9-16.3c2.9-5,7.3-8.2,12.6-10.2c6.3-2.4,12.8-3.6,19.5-4.2C785.9,594,791.3,593.8,794.1,593.7z M839.6,619.2
			c0-5.6-1.4-10.4-5.3-14.3c-2.7-2.7-6-4.4-9.7-5.4c-4.9-1.3-9.8-1.9-14.8-0.2c-6.5,2.3-10.8,6.7-12.1,13.5
			c-1.3,6.7,0.8,12.5,6.2,16.8c6.4,5,13.7,7,21.8,5.5C834.1,633.7,840,627.9,839.6,619.2z M768.3,638.2c0.8-0.1,1.8-0.1,2.8-0.2
			c5.4-0.7,10-3.1,14-6.8c4.8-4.5,7-9.9,5.9-16.4c-1.6-9-9.9-15.1-19.1-14.7c-3,0.1-5.8,1-8.4,2.2c-8.1,3.7-13.6,9.3-13.9,18.7
			c-0.1,4,0.9,7.6,3.5,10.7C757,636.3,762.2,638,768.3,638.2z"/>
		<path class="st8" d="M792.3,568.6c2.2,0,4.2-0.1,6.2,0c3.1,0.2,6.2,0.6,9.3,1c1.2,0.2,2.4,0.7,3.5,1.1c3.8,1.3,7.5,2.8,11.3,4
			c2.7,0.9,5.1,2.2,7.2,4.1c2,1.8,4,3.5,5.9,5.3c0.4,0.4,0.7,0.7,0.4,1.4c-1.6,3.6-3.2,7.2-4.8,10.8c-0.1,0.2-0.2,0.4-0.3,0.4
			c-3.3-0.9-6.4-1.8-9.6-2.5c-5.8-1.2-11.7-1.7-17.6-1.8c-3.1,0-6.2,0-9.2,0c-0.9,0-1.1-0.3-1.1-1.1c0-3,0.1-6,0-9
			c-0.2-4-0.7-8.1-1-12.1C792.5,569.7,792.4,569.2,792.3,568.6z"/>
		<path class="st8" d="M755.7,599.8c-1.2-2.4-1.4-5-1.8-7.5c-0.1-0.7-0.1-1.5-0.2-2.2c-0.4-1.9,0.5-3,1.9-4c1.2-0.9,2.5-1.6,3.7-2.5
			c1-0.8,2.1-1.5,2.9-2.5c3.5-4.2,8.3-6.5,13.1-8.8c3.2-1.6,6.7-1.9,10.2-2.5c1.5-0.3,3-0.5,4.5-0.8c1-0.2,1.4,0,1.6,1
			c0.6,5.4,1.2,10.7,0.9,16.1c-0.1,1.8,0,3.5,0.1,5.3c0.1,1-0.3,1.2-1.2,1.3c-7.9,0.2-15.8,1-23.6,2.8
			C763.6,596.3,759.6,597.6,755.7,599.8z"/>
		<path class="st8" d="M738.2,630.3c2,0.3,3.7,0.5,5.3,0.7c0.3,0.1,0.7,0.4,0.8,0.7c1.9,3.8,4.5,7,7.9,9.5c0.6,0.4,0.7,0.8,0.5,1.5
			c-0.4,1.4-0.7,2.8-1.1,4.2c-0.7,2.7-0.6,5.3,0.1,8c0.3,1.2,0.1,2.3-0.5,3.4c-2.2,3.7-5.5,6.2-8.9,8.5c-0.8,0.5-2,0.7-3,0.7
			c-1.7,0.1-3.3,0.5-4.8,1.3c-1.2,0.7-2.5,0.9-3.9,0.9c-2.7-0.1-5.4-0.1-8.1,0c-1,0-2,0.5-3,0.9c-3.8,1.4-6.6,0.7-9-2.5
			c-1.4-1.8-2.5-3.8-3.7-5.7c-0.2-0.4-0.3-0.8-0.5-1.2c1.2-0.8,2.8-1.2,3-3c0.1,0,0.3,0,0.4,0c0.4,0.9,1,1.7,1.2,2.6
			c0.5,1.9,0.9,3.9,1.4,5.8c0.3,1.4,1.3,2.2,2.6,2.2c1.4,0,2.9,0,4.3-0.4c2-0.6,4.1-1,6.2-1c2.3-0.1,4.6-0.3,6.9-0.6
			c1.3-0.2,2.3-0.9,2.9-2.1c2-4.1,3.8-8.2,4.4-12.8c0.2-1.1,0-2.3-0.2-3.4c-0.6-3.9-1.4-7.7-1.7-11.6
			C737.4,634.7,738,632.5,738.2,630.3z"/>
		<path class="st8" d="M853.4,629.7c-0.2,1.4-0.3,3.1-0.7,4.7c-0.2,1-0.1,1.8,0.6,2.5c3.8,4.2,2.9,9,1.8,13.7c-0.6,2.4-1.9,4.7-3,7
			c-1.4,3-1.1,4.4,1.7,6.4c1,0.7,2.1,1.4,3.1,2.1c1.5,1.1,3.1,2.2,4.6,3.4c2.9,2.4,5.9,1.9,7.9-1.2c0.7-1.1,1.4-2.3,2.2-3.3
			c0.7-0.9,1.6-1.7,2.6-2.6c0.3,0.9,0.6,1.6,0.8,2.4c0.1,0.2-0.2,0.6-0.4,0.8c-0.8,0.7-1.7,1.3-2.3,2.1c-0.7,0.9-1.2,1.9-1.8,2.9
			c-0.5,0.9-0.9,1.9-1.5,2.7c-1.1,1.4-2.4,2.2-4.4,1.2c-1-0.5-2.3-0.4-3.4-0.7c-1.5-0.4-3.1-0.7-4.4-1.4c-3.4-1.8-6.8-3.9-10.1-5.8
			c-0.5-0.3-0.9-0.6-1.4-0.9c-1.8-1.2-2.6-2.8-2-5c0.4-1.4,0.6-2.8,1-4.2c1.2-4,1-7.8-0.9-11.6c-1.3-2.7-1.2-5.7-1.2-8.6
			c0-0.2,0.2-0.5,0.3-0.7c1.1-1.7,2.2-3.5,3.3-5.2c0.2-0.2,0.5-0.5,0.8-0.5C848.7,629.7,851,629.7,853.4,629.7z"/>
		<path class="st8" d="M837.1,585.8c6.3,2.2,8.3,7.4,9.4,13.3c-0.8,0.3-1.7,0.5-2.7,0.9c0.7,1.5,1.4,2.9,2,4.3
			c1.4,3.2,3.2,6.3,3.6,9.8c0.2,1.3,0.2,2.6,0.3,4c0.1,0.7-0.3,0.9-0.9,0.9c-1.9,0.1-2.1-0.1-2.4-1.9c-1.4-7.6-5.1-13.7-11.6-18
			c-0.7-0.4-1.5-0.7-2.1-1.2c-0.2-0.2-0.5-0.7-0.4-1C833.8,593.1,835.4,589.5,837.1,585.8C837.1,585.8,837.2,585.7,837.1,585.8z"/>
		<path class="st8" d="M748.4,600.6c-1.3-0.4-2.2-0.6-3.1-0.9c-0.2-4.9,2.8-9.3,7.3-11c0.1,0.3,0.2,0.6,0.3,1
			c0.2,3.5,0.5,6.9,1.8,10.2c0.1,0.2-0.2,0.7-0.4,0.9c-6.1,4.3-9.3,10.4-10.5,17.6c-0.3,1.7-0.4,1.8-2.2,1.8c-0.4,0-0.8,0-1.3,0
			C740.9,612.8,743.9,606.5,748.4,600.6z"/>
		<path class="st8" d="M854.8,619.6c0.1,2.4,0.4,4.9-0.8,7.2c-0.3,0.6-1.2,1.2-1.9,1.4c-1.8,0.6-3.7,0.6-5.4,0.2c0-2.8,0-5.4,0-8
			C849.5,620.1,852,619.8,854.8,619.6z"/>
		<path class="st8" d="M736,621.3c2.4,0,4.7,0,7.3,0c0,2.8,0,5.5,0,8.3C738.2,630.1,734.9,626.4,736,621.3z"/>
		<path d="M839.6,619.2c0.4,8.7-5.5,14.5-13.9,16c-8.1,1.5-15.4-0.5-21.8-5.5c-5.4-4.3-7.5-10.1-6.2-16.8
			c1.3-6.8,5.6-11.3,12.1-13.5c4.9-1.7,9.9-1,14.8,0.2c3.7,0.9,7,2.6,9.7,5.4C838.2,608.8,839.7,613.6,839.6,619.2z M832.8,616.2
			c-0.1-0.6-0.1-1.7-0.3-2.7c-1.9-9.9-12.1-15.8-21.8-12.8c-8.2,2.6-13.2,10.7-11.4,18.6c1.8,8.1,9.4,13.6,17.9,13
			C825.7,631.7,832.3,625.1,832.8,616.2z M826.1,601.3c6.7,5,9.6,11.4,7.5,19.3c-2.3,8.4-8.4,12.4-17,13.3c0.4,0.1,0.6,0.2,0.9,0.3
			c3.4,0.4,6.7,0.3,10-0.7c5.5-1.7,9.6-5,10.7-10.9c0.4-2.1,0.3-4.4,0.1-6.5C837.7,609.3,832.9,603.4,826.1,601.3z"/>
		<path d="M768.3,638.2c-6.1-0.1-11.4-1.8-15.3-6.5c-2.6-3.1-3.6-6.7-3.5-10.7c0.3-9.4,5.8-15,13.9-18.7c2.7-1.2,5.5-2.1,8.4-2.2
			c9.3-0.4,17.6,5.7,19.1,14.7c1.2,6.5-1,11.9-5.9,16.4c-4,3.7-8.6,6.1-14,6.8C770.2,638.1,769.2,638.1,768.3,638.2z M772.8,601.6
			c-1.1,0.1-2.2,0.2-3.4,0.4c-11.7,2.1-17.3,15.2-10.7,24.9c5,7.3,15.5,9.5,23.1,4.7c7-4.4,9.8-12.6,6.5-19.9
			C785.4,605.1,780,602,772.8,601.6z M776.2,635.4c-7.9,0.9-14.6-1.4-19-8.3c-4.4-6.9-3.5-13.9,1.2-20.4c-3.1,2.3-5.4,5.1-6.7,8.8
			c-2.3,6.7-0.6,13.4,4.4,17.5c3.8,3.2,8.4,4.2,13.3,4C771.6,636.8,774,636.3,776.2,635.4z"/>
		<path d="M830.9,616.8c0,3.2-2.5,5.7-5.6,5.7c-3.2,0-5.8-2.6-5.7-5.7c0-3.2,2.5-5.6,5.7-5.6C828.4,611.2,830.8,613.7,830.9,616.8z"
			/>
		<path d="M782.1,612.9c3.2,0,5.6,2.4,5.7,5.6c0,3.2-2.5,5.7-5.7,5.7c-3.2,0-5.7-2.6-5.7-5.7C776.5,615.4,779,612.9,782.1,612.9z"/>
		<circle class="st9" cx="783.7" cy="619" r="1.2"/>
		<circle class="st9" cx="826.9" cy="617.9" r="1.2"/>
	</g>
	<g id="RightCloud">
		<path class="st7" d="M1168.7,753.2c33.8,0,61.3,27.5,61.3,61.3c0,0.2,0,0.4,0,0.6c0,0.5-0.1,0.9-0.1,1.4l-0.2,9.3h9.3
			c22.5,0.1,40.8,18.4,40.8,40.9c0,22.4-18.2,40.8-40.7,40.9h-2h-166.3c-25,0-45.4-20.4-45.4-45.4c0-19.4,12.3-36.6,30.7-42.9
			l5.1-1.7l0.9-5.3c2.2-13.1,13.5-22.7,26.8-22.7c4.2,0,8.3,1,12.2,2.9l8.3,4.2l4-8.4C1123.6,766.9,1145.3,753.2,1168.7,753.2
			 M1168.7,744.1c-28,0-52.1,16.4-63.5,40.1c-4.9-2.5-10.4-3.9-16.3-3.9c-18,0-32.9,13.1-35.8,30.2c-21.4,7.3-36.8,27.6-36.8,51.5
			c0,30.1,24.4,54.5,54.5,54.5h168.3l0,0c27.5-0.1,49.7-22.4,49.7-50c0-27.5-22.3-49.9-49.8-50c0-0.7,0.1-1.4,0.1-2.2
			C1239.1,775.6,1207.6,744.1,1168.7,744.1L1168.7,744.1z"/>
		<rect x="1294" y="870.8" class="st7" width="140.5" height="6.3"/>
		<g>
			<line class="st10" x1="1069.1" y1="871.1" x2="1200.4" y2="871.1"/>
			<g>
				<line class="st11" x1="1095" y1="871.1" x2="1200.4" y2="871.1"/>
				<g>
					<polygon class="st7" points="1100.2,889 1069.1,871.1 1100.2,853.1 					"/>
				</g>
			</g>
		</g>
		<g>
			<line class="st10" x1="1236.8" y1="889.5" x2="1105.6" y2="889.5"/>
			<g>
				<line class="st11" x1="1211" y1="889.5" x2="1105.6" y2="889.5"/>
				<g>
					<polygon class="st7" points="1205.7,871.5 1236.8,889.5 1205.7,907.4 					"/>
				</g>
			</g>
		</g>
	</g>
	<g id="Clients">
		<g>
			<path class="st6" d="M1581.7,765.1h-128.3c-8.2,0-14.8,6.7-14.9,14.9v95.4c0,8.2,6.7,14.8,14.9,14.9h128.4
				c8.2,0,14.8-6.7,14.9-14.9V780C1596.6,771.8,1589.9,765.1,1581.7,765.1z M1580.2,774.6c1.9,0,3.4,1.5,3.4,3.4
				c0,1.9-1.5,3.4-3.4,3.4s-3.4-1.5-3.4-3.4C1576.8,776.1,1578.3,774.6,1580.2,774.6z M1553.6,774.8h16.6c1.8,0,3.2,1.4,3.2,3.2
				c0,1.8-1.4,3.2-3.2,3.2h-16.6c-1.8,0-3.2-1.4-3.2-3.2C1550.4,776.3,1551.9,774.8,1553.6,774.8z M1588.5,875.4
				c0,3.7-3.1,6.7-6.8,6.8h-128.3c-3.7,0-6.7-3.1-6.8-6.8v-85.9h141.9V875.4L1588.5,875.4z"/>
		</g>
		<g>
			<rect x="1467.9" y="810.7" class="st9" width="141.9" height="92.2"/>
			<g>
				<path class="st6" d="M1603,786.1h-128.3c-8.2,0-14.8,6.7-14.9,14.9v95.4c0,8.2,6.7,14.8,14.9,14.9h128.4
					c8.2,0,14.8-6.7,14.9-14.9V801C1617.9,792.8,1611.2,786.1,1603,786.1z M1601.5,795.6c1.9,0,3.4,1.5,3.4,3.4
					c0,1.9-1.5,3.4-3.4,3.4s-3.4-1.5-3.4-3.4C1598.1,797.2,1599.6,795.6,1601.5,795.6z M1574.9,795.8h16.6c1.8,0,3.2,1.4,3.2,3.2
					c0,1.8-1.4,3.2-3.2,3.2h-16.6c-1.8,0-3.2-1.4-3.2-3.2C1571.7,797.3,1573.2,795.8,1574.9,795.8z M1609.8,896.4
					c0,3.7-3.1,6.7-6.8,6.8h-128.3c-3.7,0-6.7-3.1-6.8-6.8v-85.9h141.9L1609.8,896.4L1609.8,896.4z"/>
			</g>
		</g>
		<g>
			<rect x="1491" y="782.2" class="st9" width="141.9" height="93.2"/>
			<g>
				<path class="st6" d="M1626.1,758.4h-128.3c-8.2,0-14.8,6.7-14.9,14.9v95.4c0,8.2,6.7,14.8,14.9,14.9h128.4
					c8.2,0,14.8-6.7,14.9-14.9v-95.4C1641,765.1,1634.3,758.4,1626.1,758.4z M1624.6,768c1.9,0,3.4,1.5,3.4,3.4
					c0,1.9-1.5,3.4-3.4,3.4s-3.4-1.5-3.4-3.4C1621.2,769.5,1622.7,768,1624.6,768z M1598,768.2h16.6c1.8,0,3.2,1.4,3.2,3.2
					s-1.4,3.2-3.2,3.2H1598c-1.8,0-3.2-1.4-3.2-3.2C1594.8,769.6,1596.3,768.2,1598,768.2z M1632.9,868.7c0,3.7-3.1,6.7-6.8,6.8
					h-128.3c-3.7,0-6.7-3.1-6.8-6.8v-85.9h141.9V868.7L1632.9,868.7z"/>
			</g>
			<g id="auIZQe.tif_1_">
			</g>
		</g>
	</g>
	<g id="LeftCloud">
		<path class="st7" d="M453,753.2c33.8,0,61.3,27.5,61.3,61.3c0,0.2,0,0.4,0,0.6c0,0.5-0.1,0.9-0.1,1.4l-0.2,9.3h9.3
			c22.5,0.1,40.8,18.4,40.8,40.9c0,22.4-18.2,40.8-40.7,40.9h-2H355.1c-25,0-45.4-20.4-45.4-45.4c0-19.4,12.3-36.6,30.7-42.9
			l5.1-1.7l0.9-5.3c2.2-13.1,13.5-22.7,26.8-22.7c4.2,0,8.3,1,12.2,2.9l8.3,4.2l4-8.4C407.9,766.9,429.6,753.2,453,753.2 M453,744.1
			c-28,0-52.1,16.4-63.5,40.1c-4.9-2.5-10.4-3.9-16.3-3.9c-18,0-32.9,13.1-35.8,30.2c-21.4,7.3-36.8,27.6-36.8,51.5
			c0,30.1,24.4,54.5,54.5,54.5h168.3l0,0c27.5-0.1,49.7-22.4,49.7-50c0-27.5-22.3-49.9-49.8-50c0-0.7,0.1-1.4,0.1-2.2
			C523.4,775.6,491.9,744.1,453,744.1L453,744.1z"/>
	</g>
	<g id="Servers">
		<rect x="131.5" y="870.8" class="st7" width="167.9" height="6.3"/>
		<g>
			<path class="st6" d="M-0.8,793.3h-66.6c-6.2,0-11.2,5-11.2,11.2s5,11.2,11.2,11.2h66.6c6.2,0,11.2-5,11.2-11.2
				S5.4,793.3-0.8,793.3z M-2.3,808.3c-2.1,0-3.8-1.7-3.8-3.8c0-2.1,1.7-3.8,3.8-3.8s3.8,1.7,3.8,3.8S-0.2,808.3-2.3,808.3z"/>
			<path class="st6" d="M-0.8,818.1h-66.6c-6.2,0-11.2,5-11.2,11.2s5,11.2,11.2,11.2h66.6c6.2,0,11.2-5,11.2-11.2
				S5.4,818.1-0.8,818.1z M-2.3,833.2c-2.1,0-3.8-1.7-3.8-3.8s1.7-3.8,3.8-3.8s3.8,1.7,3.8,3.8S-0.2,833.2-2.3,833.2z"/>
			<path class="st6" d="M-0.8,843h-66.6c-6.2,0-11.2,5-11.2,11.2s5,11.2,11.2,11.2h66.6c6.2,0,11.2-5,11.2-11.2S5.4,843-0.8,843z
				 M-2.3,858.1c-2.1,0-3.8-1.7-3.8-3.8s1.7-3.8,3.8-3.8s3.8,1.7,3.8,3.8S-0.2,858.1-2.3,858.1z"/>
		</g>
		<g>
			<path class="st6" d="M83.3,752H28.7c-5.1,0-9.2,4.1-9.2,9.2c0,5.1,4.1,9.2,9.2,9.2h54.6c5.1,0,9.2-4.1,9.2-9.2
				C92.5,756.1,88.4,752,83.3,752z M82.1,764.3c-1.7,0-3.1-1.4-3.1-3.1s1.4-3.1,3.1-3.1c1.7,0,3.1,1.4,3.1,3.1
				C85.3,762.9,83.9,764.3,82.1,764.3z"/>
			<path class="st6" d="M83.3,772.4H28.7c-5.1,0-9.2,4.1-9.2,9.2c0,5.1,4.1,9.2,9.2,9.2h54.6c5.1,0,9.2-4.1,9.2-9.2
				S88.4,772.4,83.3,772.4z M82.1,784.7c-1.7,0-3.1-1.4-3.1-3.1s1.4-3.1,3.1-3.1c1.7,0,3.1,1.4,3.1,3.1
				C85.3,783.3,83.9,784.7,82.1,784.7z"/>
			<path class="st6" d="M83.3,792.8H28.7c-5.1,0-9.2,4.1-9.2,9.2c0,5.1,4.1,9.2,9.2,9.2h54.6c5.1,0,9.2-4.1,9.2-9.2
				C92.5,796.9,88.4,792.8,83.3,792.8z M82.1,805.1c-1.7,0-3.1-1.4-3.1-3.1s1.4-3.1,3.1-3.1c1.7,0,3.1,1.4,3.1,3.1
				C85.3,803.7,83.9,805.1,82.1,805.1z"/>
		</g>
		<g>
			<path class="st6" d="M111.7,828.2H38.5c-6.8,0-12.3,5.5-12.3,12.3s5.5,12.3,12.3,12.3h73.2c6.8,0,12.3-5.5,12.3-12.3
				C124,833.8,118.5,828.2,111.7,828.2z M110,844.8c-2.3,0-4.2-1.9-4.2-4.2s1.9-4.2,4.2-4.2s4.2,1.9,4.2,4.2
				C114.3,842.9,112.4,844.8,110,844.8z"/>
			<path class="st6" d="M111.7,855.6H38.5c-6.8,0-12.3,5.5-12.3,12.3s5.5,12.3,12.3,12.3h73.2c6.8,0,12.3-5.5,12.3-12.3
				S118.5,855.6,111.7,855.6z M110,872.2c-2.3,0-4.2-1.9-4.2-4.2s1.9-4.2,4.2-4.2s4.2,1.9,4.2,4.2S112.4,872.2,110,872.2z"/>
			<path class="st6" d="M111.7,883H38.5c-6.8,0-12.3,5.5-12.3,12.3s5.5,12.3,12.3,12.3h73.2c6.8,0,12.3-5.5,12.3-12.3
				S118.5,883,111.7,883z M110,899.5c-2.3,0-4.2-1.9-4.2-4.2s1.9-4.2,4.2-4.2s4.2,1.9,4.2,4.2C114.3,897.7,112.4,899.5,110,899.5z"
				/>
		</g>
	</g>
	<g id="Cabine">
		<path class="st0" d="M671.7,655c0,0,7.8-124,122.3-124s122.3,121.3,122.3,121.3s-22.5,45.9-121.2,45.9S671.7,655,671.7,655z"/>
	</g>
</g>
<g id="Text">
	<text transform="matrix(1 0 0 1 344.6674 838.8286)"><tspan x="0" y="0" class="st12 st13">HTTP Rest API</tspan><tspan x="0" y="28.8" class="st12 st13">E-mail (SMTP)</tspan><tspan x="0" y="57.6" class="st12 st13">SIP telephony</tspan></text>
	<text transform="matrix(1 0 0 1 1075.0974 836.3597)" class="st12 st14">WebSocket</text>
	<text transform="matrix(1 0 0 1 721.6475 770.8533)" class="st9 st12 st15">Go Lang</text>
	<text transform="matrix(1 0 0 1 721.6475 825.6593)" class="st9 st12 st15">{ JS }</text>
	<text transform="matrix(1 0 0 1 1503.7477 865.1589)" class="st12 st14">React JS</text>
	<g id="Layer_1_1_">
		<path class="st16" d="M1567.9,813.6c0,2.9-2.4,5.3-5.3,5.3s-5.3-2.4-5.3-5.3s2.4-5.3,5.3-5.3S1567.9,810.7,1567.9,813.6z"/>
		<path class="st17" d="M1562.6,802.8c7.1,0,13.8,1,18.8,2.7c6,2.1,9.7,5.2,9.7,8.1c0,3-3.9,6.3-10.4,8.4
			c-4.9,1.6-11.3,2.5-18.1,2.5c-6.9,0-13.5-0.8-18.5-2.5c-6.3-2.1-10-5.5-10-8.4c0-2.8,3.5-5.9,9.5-8
			C1548.6,803.8,1555.4,802.8,1562.6,802.8z"/>
		<path class="st17" d="M1553.2,808.2c3.6-6.2,7.8-11.4,11.8-14.9c4.8-4.2,9.4-5.8,11.8-4.4c2.6,1.5,3.5,6.5,2.1,13.2
			c-1,5-3.5,11-6.9,16.9c-3.5,6-7.4,11.3-11.4,14.8c-5,4.4-9.8,5.9-12.3,4.5c-2.4-1.4-3.4-6-2.2-12.2
			C1547.1,820.9,1549.6,814.5,1553.2,808.2z"/>
		<path class="st17" d="M1553.2,819.1c-3.6-6.2-6-12.4-7-17.6c-1.2-6.3-0.4-11,2.1-12.5c2.6-1.5,7.4,0.2,12.5,4.8
			c3.9,3.4,7.8,8.6,11.2,14.4c3.5,6,6.1,12.1,7.1,17.2c1.3,6.5,0.2,11.4-2.3,12.9c-2.4,1.4-6.9-0.1-11.7-4.2
			C1561.1,830.7,1556.8,825.3,1553.2,819.1z"/>
	</g>
</g>
</svg>
